<?xml version="1.0"?><svg id="icon" viewBox="0 0 32 32" xmlns="http://www.w3.org/2000/svg"><defs><style>.cls-1{fill:#1d4ed8;}.cls-2{fill:none;}</style></defs><title/><path fill="#1d4ed8" d="M10,30H4a2,2,0,0,1-2-2V16a2,2,0,0,1,2-2h6a2,2,0,0,1,2,2V28A2,2,0,0,1,10,30ZM4,16V28h6V16Z"/><path class="cls-1" d="M28,4H6A2,2,0,0,0,4,6v6H6V6H28V20H14v2h2v4H14v2h9V26H18V22H28a2,2,0,0,0,2-2V6A2,2,0,0,0,28,4Z"/><rect class="cls-2" data-name="&lt;Transparent Rectangle&gt;" height="32" id="_Transparent_Rectangle_" width="32"/></svg>